<?xml version="1.0" encoding="UTF-8" standalone="no"?>
<!DOCTYPE svg PUBLIC "-//W3C//DTD SVG 1.1//EN" "http://www.w3.org/Graphics/SVG/1.1/DTD/svg11.dtd">
<svg width="100%" height="100%" viewBox="0 0 602 139" version="1.1" xmlns="http://www.w3.org/2000/svg" xmlns:xlink="http://www.w3.org/1999/xlink" xml:space="preserve" xmlns:serif="http://www.serif.com/" style="fill-rule:evenodd;clip-rule:evenodd;stroke-linejoin:round;stroke-miterlimit:2;">
    <g transform="matrix(1,0,0,1,-221.985247,-312.346479)">
        <g transform="matrix(0.933177,0,0,0.933177,1.696633,23.184563)">
            <path d="M236.9,343.6C237.8,340 239,331 249.7,321.8C260.7,312.4 264.9,313.7 334.5,313.7C366.3,313.7 370.3,312.3 370.4,320.5C370.7,346.4 370.7,346.6 369.3,348.4C367.3,351.1 366.5,350.7 307.5,350.7C275.2,350.7 273.4,350.1 273.2,353.5C272.4,376.2 276.8,387.5 266.5,387.5C239.3,387.8 236.3,388.1 236.2,381.5C235.7,353.8 236.5,346.6 236.9,343.6Z" style="fill:rgb(238,61,251);"/>
        </g>
        <g transform="matrix(0.933177,0,0,0.933177,1.696633,23.184563)">
            <path d="M273.2,397.5C273.2,396.9 273.3,391 274.5,389.5C276.5,387.1 277.1,387.5 325.5,387.5C366.8,387.5 368.7,386.7 370.1,391.6C370.6,393.2 370.4,419.1 370.3,419.5C369.8,426.4 363,424.1 314.5,424.4C308.3,424.4 308.8,426 304.4,430.4C279.9,454.5 279.6,456.5 275.5,454.4C272.8,453.1 273.2,452.2 273.2,397.5Z" style="fill:rgb(238,61,251);"/>
        </g>
        <g transform="matrix(0.454088,0,0,0.454088,153.808193,267.711534)">
            <g transform="matrix(367.160191,0,0,367.160191,1488.073685,395)">
            </g>
            <text x="417px" y="395px" style="font-family:'LEMONMILK-Bold', 'LEMON MILK';font-weight:700;font-size:367.2px;fill:white;">e<tspan x="635.3px 885.6px 1145.7px " y="395px 395px 395px ">yro</tspan></text>
        </g>
    </g>
</svg>
